<svg width="369.1152976681984" height="273.59999999999997" viewBox="0 0 350 259.4311333205151" class="css-1j8o68f"><defs id="SvgjsDefs2703"></defs><g id="SvgjsG2704" featurekey="symbolFeature-0" transform="matrix(1.7073169143195814,0,0,1.7073169143195814,89.63414777112376,-8.536226362253853)" fill="#ffffff"><path xmlns="http://www.w3.org/2000/svg" d="m 19.400883,91.954649 c -0.77958,-2.175664 5.441554,-2.943834 4.755353,-5.148558 C 22.826521,82.533789 13.93731,86.616151 10.766921,83.370697 9.3963852,81.967709 8.2819965,79.175935 9.5674976,77.702812 13.724438,72.939145 26.992305,84.248437 28.918405,78.300578 30.095747,74.664918 22.684434,74.95818 18.990237,72.06741 15.998171,69.726075 14.489519,65.654952 14.108269,61.95523 13.734485,58.328005 13.021258,51.66066 16.778326,51.33286 c 6.276132,-0.547584 2.835271,12.831156 7.722133,16.681629 2.280404,1.796785 5.947078,3.033584 8.61624,1.843864 2.853144,-1.271725 6.077265,-6.936288 6.457226,-9.950529 0.426906,-3.38665 0.953242,-9.698442 -2.570711,-9.933754 -4.555855,-0.304215 -0.554715,12.805975 -5.089252,12.280849 -5.234667,-0.606204 -6.795776,-9.028384 -2.276272,-15.120971 3.402957,-4.587407 7.979734,-4.487247 8.530114,-8.367395 0.221164,-1.559193 -0.796785,-3.704003 -2.364152,-4.135812 -6.332595,-1.744628 -11.08762,11.680147 -17.210351,9.33685 -2.129117,-0.814858 -2.845596,-4.249716 -2.068163,-6.328804 2.028094,-5.423739 16.821774,-3.833182 15.064656,-9.348915 -1.950113,-6.121572 -16.170073,5.777296 -19.876539,0.465038 -1.445911,-2.072334 1.062741,-5.318848 3.086768,-6.870572 3.659861,-2.805838 10.940542,1.142567 13.794503,-2.431232 1.434258,-1.796006 1.348057,-5.42959 -0.534204,-6.790165 -2.765417,-1.998959 -7.492827,4.252041 -10.124137,2.090638 -1.851015,-1.520458 -1.078096,-5.137078 0.355713,-7.0285517 1.595441,-2.1046962 4.895214,-2.6736638 7.596615,-2.7226919 2.857435,-0.051835 6.073666,0.6851507 8.148625,2.5862929 3.939098,3.6091217 0.468738,14.6875317 5.894289,14.6641857 4.832682,-0.0208 2.787447,-9.007574 5.096263,-13.1063028 1.453846,-2.5809445 4.607454,-4.2857355 6.514457,-2.890608 3.59491,2.629966 0.39773,8.7215548 -2.09422,12.9011578 -2.048011,3.435005 -6.711496,7.605984 -4.622919,11.023042 1.405848,2.300066 5.85667,2.318892 8.232155,0.957605 8.043586,-4.609428 1.104629,-26.217919 10.401001,-25.1766788 2.805389,0.3142185 3.573771,3.9715506 2.34731,8.0944058 -0.659044,2.215432 -1.666542,6.904969 0.680218,7.328719 5.163334,0.932337 3.410456,-8.02872 8.001378,-11.5121837 4.167429,-3.162129 12.593226,-3.4229672 14.998114,-0.1406032 2.529458,3.4523829 1.139541,6.4882329 1.085636,9.3156059 -0.06995,3.669988 0.879594,7.917635 -2.524743,9.543909 -1.688885,0.806794 -4.129845,-0.653288 -5.106221,-2.212155 -2.00163,-3.195773 3.938168,-7.783016 1.04853,-10.265185 -7.73661,-4.140257 -9.165755,6.905872 -7.644446,10.291722 1.292119,2.733099 1.403629,5.148291 -1.65044,5.674091 -5.770472,0.993465 -4.524478,-7.890251 -11.159665,-3.782156 -3.08092,1.907513 -1.914219,5.628295 -6.823176,8.506553 -2.743539,1.608611 -6.854221,2.332176 -9.339771,4.293188 -1.84654,1.456854 -5.018247,4.050914 -3.651762,5.941531 2.978063,4.120339 10.411805,-4.376081 15.331819,-2.7473 2.132973,0.706124 5.064534,2.773872 4.499683,4.881101 -1.435355,5.354722 -15.740428,-0.05848 -16.221133,5.45443 -0.236018,2.706749 4.659686,3.279359 7.386783,3.945357 2.997314,0.731989 6.645751,1.482477 9.271526,-0.08933 4.025422,-2.409648 7.043762,-7.689103 6.447093,-12.230719 -0.420744,-3.202575 -7.04143,-4.063675 -6.634033,-7.266877 0.21282,-1.673314 2.572972,-2.728694 4.312578,-2.863798 2.872805,-0.22311 4.953986,3.834493 7.822838,3.568654 3.594564,-0.333088 5.119498,-6.279726 8.729869,-6.188608 2.13,0.05373 4.878601,1.849032 4.955584,3.906119 0.09282,2.480571 -5.340758,2.63288 -5.608605,5.101121 -0.365972,3.372415 6.710353,5.04939 5.998584,8.369434 -0.317879,1.482743 -2.431921,2.265669 -3.993812,2.395152 -2.368468,0.196349 -2.975292,-2.801382 -6.616045,-2.581479 -3.049689,0.1842 -1.341994,2.693127 -5.244359,7.257988 -2.42173,2.832862 -7.60022,5.921177 -6.113337,9.306951 1.11727,2.544127 5.689022,2.54781 8.402467,1.679595 3.905112,-1.249511 4.151459,-8.183063 8.196572,-8.909103 1.518918,-0.272626 3.570633,0.657979 4.122594,2.052955 1.099093,2.777752 -3.441526,5.355903 -3.297457,8.325361 0.14397,2.967418 4.701334,5.08431 4.086686,7.994135 -0.317357,1.502411 -2.028353,3.070138 -3.614055,2.992631 -3.03012,-0.148114 -3.292975,-5.896732 -6.288643,-6.363574 -1.385229,-0.215873 -3.218279,0.643057 -3.712369,1.910882 -1.080369,2.772199 0.410843,6.516149 3.245581,8.322667 2.505721,1.596843 8.148414,1.395171 7.841115,4.277849 -0.293917,2.757152 -4.234876,2.704685 -8.203518,2.510855 -2.162498,-0.105622 -5.092137,-0.988072 -7.157728,-4.352807 -3.203957,-5.219072 -1.11016,-11.691532 -5.740379,-11.529397 -2.104083,0.07368 -2.972198,3.144411 -2.675449,5.207748 0.702157,4.882175 3.70981,9.729437 -4.803993,12.731367 -2.038995,0.71894 -6.113952,-0.135732 -6.524679,-2.395101 -0.448789,-2.468736 3.800709,-2.883961 4.562479,-5.389694 1.419292,-4.668553 -7.805525,-0.125878 -9.594709,-8.81552 -0.313639,-1.523273 0.272119,-4.991015 2.198151,-5.529459 2.993271,-0.836803 4.646032,6.21403 7.326133,4.65193 3.686817,-2.148866 1.615862,-8.854469 -1.650075,-11.678733 -2.135724,-1.846895 -6.28259,-1.889867 -8.591498,-0.208619 -4.551019,3.313943 -6.501538,9.237113 -5.345955,13.822327 1.124984,4.463797 7.833319,10.854753 4.192184,14.239083 -1.175218,1.092331 -3.489281,-0.444977 -4.550078,-1.624307 -3.560607,-3.958474 -3.630492,-6.867803 -6.750895,-6.41867 -3.422259,0.492583 -2.74013,5.695467 -4.86685,8.805009 -1.835342,2.68351 -8.410025,1.287886 -9.448908,-1.611429 z"></path></g><g id="SvgjsG2705" featurekey="nameFeature-0" transform="matrix(1.387787487054684,0,0,1.387787487054684,-2.1649450916522626,160.14062894496726)" fill="#ffffff"><path d="M26 28.72 q-0.24 -0.24 -0.34 -0.58 t-0.02 -0.66 q0.2 -1.28 0.2 -2.28 q0 -4.12 -2.44 -6.72 q-2.56 -2.68 -6.76 -2.68 t-6.76 2.68 q-2.44 2.6 -2.44 6.72 t2.44 6.72 q2.56 2.68 6.76 2.68 q1.68 0 3 -0.4 l-2.28 -2.28 q-0.4 -0.48 -0.4 -1 t0.4 -1 l2.16 -2.16 q0.44 -0.44 1.02 -0.44 t0.98 0.44 l8.68 8.68 q0.44 0.4 0.44 0.98 t-0.44 1.02 l-2.16 2.16 q-0.36 0.4 -0.98 0.4 t-1.02 -0.4 l-1.96 -2 q-3.28 1.8 -7.44 1.8 q-6.64 0 -10.92 -4.44 q-4.16 -4.36 -4.16 -10.76 t4.16 -10.76 q4.32 -4.44 10.94 -4.44 t10.9 4.48 q4.16 4.28 4.16 10.72 q0 2.84 -0.92 5.48 q-0.12 0.36 -0.38 0.6 t-0.62 0.28 q-0.76 0.2 -1.32 -0.36 z M46.440000000000005 34.12 q0.48 0.16 0.76 0.54 t0.28 0.86 l0 3.08 q0 0.64 -0.52 1.08 q-0.4 0.32 -0.88 0.32 q-0.2 0 -0.28 -0.04 q-3.72 -0.72 -6.4 -3.44 q-3.6 -3.68 -3.6 -9.68 l0 -15.4 q0 -0.6 0.42 -1.02 t0.98 -0.42 l3.08 0 q0.6 0 1.02 0.42 t0.42 1.02 l0 15.48 q0 3.8 2.16 5.8 q1.12 1.04 2.56 1.4 z M60.24 10 q0.6 0 1.02 0.42 t0.42 1.02 l0 15.4 q0 6 -3.6 9.68 q-2.68 2.72 -6.4 3.44 q-0.08 0.04 -0.28 0.04 q-0.48 0 -0.88 -0.32 q-0.52 -0.4 -0.52 -1.12 l0 -3.08 q0 -0.44 0.28 -0.82 t0.76 -0.54 q1.52 -0.44 2.56 -1.4 q2.16 -1.92 2.16 -5.8 l0 -15.48 q0 -0.6 0.42 -1.02 t1.02 -0.42 l3.04 0 z M72.28 21.88 q0.6 0 1 0.42 t0.4 1.02 l0 14.96 q0 0.56 -0.4 0.98 t-1 0.42 l-3.04 0 q-0.56 0 -0.98 -0.42 t-0.42 -0.98 l0 -14.96 q0 -0.6 0.42 -1.02 t0.98 -0.42 l3.04 0 z M72.28 10 q0.6 0 1 0.42 t0.4 0.98 l0 7.4 q0 0.6 -0.4 1.02 t-1 0.42 l-3.04 0 q-0.56 0 -0.98 -0.42 t-0.42 -1.02 l0 -7.4 q0 -0.56 0.42 -0.98 t0.98 -0.42 l3.04 0 z M94.92000000000002 15.719999999999999 q-0.52 -0.08 -0.86 -0.48 t-0.34 -0.92 l0 -2.92 q0 -0.68 0.48 -1.08 t1.12 -0.32 q3.44 0.56 6.12 2.44 q3.48 2.52 4.92 6.68 q0.24 0.68 -0.16 1.28 t-1.16 0.6 l-3.2 0 q-0.44 0 -0.8 -0.22 t-0.52 -0.62 q-0.88 -2.08 -2.68 -3.32 q-1.4 -0.88 -2.92 -1.12 z M105.04000000000002 29 q0.76 0 1.16 0.6 t0.16 1.28 q-1.44 4.16 -4.92 6.68 q-2.68 1.88 -6.12 2.44 l-0.2 0 q-0.56 0 -0.92 -0.36 q-0.48 -0.36 -0.48 -1.04 l0 -2.92 q0 -0.52 0.32 -0.92 t0.84 -0.48 q1.68 -0.24 2.96 -1.12 q1.8 -1.24 2.68 -3.32 q0.16 -0.4 0.52 -0.62 t0.8 -0.22 l3.2 0 z M90.72000000000001 10.48 q0.52 0.4 0.52 1.08 l0 3.12 q0 0.44 -0.3 0.82 t-0.74 0.54 q-0.56 0.12 -0.88 0.28 q-1.6 0.72 -2.72 1.96 q-2.28 2.56 -2.28 6.7 t2.28 6.74 q1.4 1.6 3.6 2.24 q0.44 0.12 0.74 0.5 t0.3 0.82 l0 3.16 q0 0.68 -0.52 1.08 q-0.36 0.32 -0.92 0.32 l-0.28 0 q-4.28 -0.92 -7.24 -4.16 q-3.8 -4.28 -3.8 -10.68 t3.8 -10.68 q2.96 -3.28 7.24 -4.12 q0.64 -0.16 1.2 0.28 z M136.36 37.4 q0.24 0.28 0.28 0.68 t-0.14 0.76 t-0.52 0.56 t-0.74 0.2 l-3.8 0 q-0.36 0 -0.66 -0.16 t-0.5 -0.44 l-9.56 -13.76 l-3.92 3.68 l0 9.28 q0 0.56 -0.42 0.98 t-0.98 0.42 l-3.04 0 q-0.56 0 -0.98 -0.42 t-0.42 -0.98 l0 -11.12 q0 -0.64 0.44 -1 l16.72 -15.68 q0.4 -0.4 0.96 -0.4 l4.32 0 q0.4 0 0.76 0.24 t0.52 0.64 t0.08 0.82 t-0.4 0.74 l-9.36 8.8 z M112.36000000000001 20.2 q-0.56 0 -0.98 -0.4 t-0.42 -1 l0 -7.4 q0 -0.56 0.42 -0.98 t0.98 -0.42 l3.04 0 q0.56 0 0.98 0.42 t0.42 0.98 l0 7.4 q0 0.6 -0.42 1 t-0.98 0.4 l-3.04 0 z M159.24 24.84 q1.72 1.08 2.62 2.64 t0.9 3.48 q0 4.52 -3.44 6.92 q-2.32 1.68 -6.28 2.12 l-0.16 0 q-0.56 0 -0.92 -0.36 q-0.48 -0.44 -0.48 -1.04 l0 -2.88 q0 -0.52 0.36 -0.92 t0.88 -0.48 q1.88 -0.2 2.92 -0.88 q0.8 -0.48 1.08 -1.24 q0.16 -0.44 0.16 -1.12 q0 -0.44 -0.16 -0.76 t-0.56 -0.6 q-1.16 -0.8 -3 -1.36 l-0.64 -0.2 q-2 -0.56 -3.68 -0.92 q-0.36 -0.08 -1.16 -0.28 l-0.44 -0.12 q-1.44 -0.36 -3.04 -1 q-2.36 -1 -3.88 -2.52 q-1.76 -1.76 -1.76 -4.64 q0 -3.96 3.04 -6.44 q2.08 -1.76 5.84 -2.24 q0.64 -0.08 1.1 0.36 t0.46 1.04 l0 2.88 q0 0.52 -0.32 0.92 t-0.82 0.46 t-1.02 0.22 q-1.16 0.44 -1.64 0.86 t-0.68 0.86 q-0.2 0.68 -0.2 1.28 q0 0.32 0.36 0.68 q0.56 0.56 1.64 1 q0.48 0.2 1.68 0.6 l5 1.24 l0.24 0.08 q1.88 0.52 2.72 0.8 q1.88 0.64 3.28 1.56 z M152.56 15.8 q-0.48 -0.12 -0.78 -0.5 t-0.3 -0.9 l0 -2.92 q0 -0.64 0.52 -1.08 q0.2 -0.2 0.52 -0.26 t0.6 -0.02 q3.52 0.56 5.72 2.4 q3 2.48 3.2 6.32 q0.04 0.56 -0.38 1.02 t-1.02 0.46 l-3.12 0 q-0.52 0 -0.92 -0.36 t-0.44 -0.88 q-0.16 -1.04 -0.68 -1.72 q-0.84 -1 -2.6 -1.52 q-0.12 0 -0.16 -0.04 l-0.16 0 z M147.88 34.16 q0.48 0.08 0.8 0.48 t0.32 0.88 l0 2.96 q0 0.64 -0.48 1.08 q-0.4 0.32 -0.92 0.32 l-0.2 0 q-3.72 -0.56 -6.12 -2.44 q-3.12 -2.48 -3.52 -6.92 q-0.08 -0.64 0.36 -1.1 t1.04 -0.46 l3.16 0 q0.56 0 0.96 0.38 t0.44 0.94 q0.12 2 1.96 3.08 q0.84 0.48 2.2 0.8 z M191.92 10 q0.56 0 0.98 0.42 t0.42 0.98 l0 26.8 q0 0.56 -0.42 0.98 t-0.98 0.42 l-3.52 0 q-0.72 0 -1.16 -0.56 l-19.56 -26.8 q-0.24 -0.32 -0.28 -0.72 t0.14 -0.76 t0.52 -0.56 t0.74 -0.2 l3.52 0 q0.32 0 0.64 0.14 t0.48 0.42 l14.04 19.08 l0 -18.24 q0 -0.56 0.4 -0.98 t1 -0.42 l3.04 0 z M171.84 29.4 q0.56 0 0.98 0.4 t0.42 1 l0 7.4 q0 0.56 -0.42 0.98 t-0.98 0.42 l-3.04 0 q-0.56 0 -0.98 -0.42 t-0.42 -0.98 l0 -7.4 q0 -0.6 0.42 -1 t0.98 -0.4 l3.04 0 z M226.12 37.72 q0.28 0.64 -0.14 1.3 t-1.14 0.66 l-26.64 0 q-0.36 0 -0.68 -0.18 t-0.48 -0.46 q-0.44 -0.64 -0.12 -1.32 l1.24 -2.92 q0.16 -0.4 0.52 -0.64 t0.76 -0.24 l18.64 0 l-6.56 -15.68 l-5.36 12.8 q-0.16 0.4 -0.5 0.62 t-0.78 0.22 l-3.36 0 q-0.76 0 -1.2 -0.64 q-0.16 -0.28 -0.2 -0.64 t0.08 -0.68 l8.12 -19.04 q0.16 -0.4 0.5 -0.64 t0.78 -0.24 l3.84 0 q0.44 0 0.78 0.24 t0.5 0.64 z M243.16 10 q4.76 0 7.68 2.74 t2.92 7.3 t-2.88 7.28 t-7.72 2.72 l-7.64 0 l0 8.16 q0 0.56 -0.42 0.98 t-0.98 0.42 l-3.04 0 q-0.56 0 -0.98 -0.42 t-0.42 -0.98 l0 -12.4 q0 -0.56 0.42 -0.98 t0.98 -0.42 l11.84 0 q2.68 0 3.84 -1.16 q1.16 -1.04 1.16 -3.16 t-1.2 -3.26 t-3.8 -1.14 l-11.84 0 q-0.56 0 -0.98 -0.42 t-0.42 -0.98 l0 -2.88 q0 -0.56 0.42 -0.98 t0.98 -0.42 l12.08 0 z"></path></g><g id="SvgjsG2706" featurekey="sloganFeature-0" transform="matrix(1.4465948291594721,0,0,1.4465948291594721,22.87165779911844,229.77593656358522)" fill="#ffffff"><path d="M13 14.36 q-0.12 -0.12 -0.17 -0.29 t-0.01 -0.33 q0.1 -0.64 0.1 -1.14 q0 -2.06 -1.22 -3.36 q-1.28 -1.34 -3.38 -1.34 t-3.38 1.34 q-1.22 1.3 -1.22 3.36 t1.22 3.36 q1.28 1.34 3.38 1.34 q0.84 0 1.5 -0.2 l-1.14 -1.14 q-0.2 -0.24 -0.2 -0.5 t0.2 -0.5 l1.08 -1.08 q0.22 -0.22 0.51 -0.22 t0.49 0.22 l4.34 4.34 q0.22 0.2 0.22 0.49 t-0.22 0.51 l-1.08 1.08 q-0.18 0.2 -0.49 0.2 t-0.51 -0.2 l-0.98 -1 q-1.64 0.9 -3.72 0.9 q-3.32 0 -5.46 -2.22 q-2.08 -2.18 -2.08 -5.38 t2.08 -5.38 q2.16 -2.22 5.47 -2.22 t5.45 2.24 q2.08 2.14 2.08 5.36 q0 1.42 -0.46 2.74 q-0.06 0.18 -0.19 0.3 t-0.31 0.14 q-0.38 0.1 -0.66 -0.18 z M28.574 5 q0.28 0 0.49 0.21 t0.21 0.49 l0 7.56 q0 2.92 -1.78 4.75 t-4.57 1.83 t-4.57 -1.83 t-1.78 -4.75 l0 -7.56 q0 -0.28 0.21 -0.49 t0.49 -0.21 l1.5 0 q0.28 0 0.49 0.21 t0.21 0.49 l0 7.6 q0 1.86 1.06 2.84 q0.9 0.84 2.38 0.84 t2.4 -0.84 q1.06 -1 1.06 -2.84 l0 -7.6 q0 -0.28 0.2 -0.49 t0.48 -0.21 l1.52 0 z M33.228 5 q0.28 0 0.49 0.21 t0.21 0.49 l0 13.28 q0 0.28 -0.21 0.49 t-0.49 0.21 l-1.5 0 q-0.28 0 -0.49 -0.21 t-0.21 -0.49 l0 -13.28 q0 -0.28 0.21 -0.49 t0.49 -0.21 l1.5 0 z M40.362 8.22 q-0.82 0.34 -1.34 0.96 q-1.12 1.24 -1.12 3.32 t1.12 3.34 q1.16 1.3 3.44 1.3 q1.2 0 2.11 -0.61 t1.35 -1.63 q0.08 -0.2 0.25 -0.31 t0.39 -0.11 l1.58 0 q0.16 0 0.32 0.07 t0.24 0.21 q0.22 0.32 0.1 0.64 q-0.74 2.1 -2.44 3.3 q-1.82 1.3 -4.24 1.3 q-3.22 0 -5.24 -2.22 q-1.88 -2.12 -1.88 -5.28 t1.88 -5.28 q2.02 -2.22 5.24 -2.22 q2.42 0 4.24 1.3 q1.68 1.2 2.44 3.3 q0.12 0.34 -0.1 0.64 q-0.08 0.14 -0.24 0.21 t-0.32 0.07 l-1.58 0 q-0.22 0 -0.39 -0.11 t-0.25 -0.31 q-0.44 -1.02 -1.35 -1.63 t-2.11 -0.61 q-1.28 0 -2.1 0.36 z M56.756 10.58 l5.62 8 q0.12 0.16 0.14 0.36 t-0.07 0.37 t-0.26 0.27 t-0.37 0.1 l-1.9 0 q-0.16 0 -0.31 -0.08 t-0.25 -0.22 l-4.74 -6.82 l-1.94 1.82 l0 4.6 q0 0.28 -0.21 0.49 t-0.49 0.21 l-1.5 0 q-0.28 0 -0.49 -0.21 t-0.21 -0.49 l0 -13.28 q0 -0.28 0.21 -0.49 t0.49 -0.21 l1.5 0 q0.28 0 0.49 0.21 t0.21 0.49 l0 4.76 l5.62 -5.28 q0.18 -0.18 0.48 -0.18 l2.12 0 q0.2 0 0.38 0.12 t0.26 0.32 t0.04 0.4 t-0.2 0.36 z M64.61 16.28 q0.28 0 0.49 0.2 t0.21 0.5 l0 2.08 q0 0.28 -0.21 0.49 t-0.49 0.21 l-1.82 0 q-0.3 0 -0.5 -0.21 t-0.2 -0.49 l0 -2.08 q0 -0.3 0.2 -0.5 t0.5 -0.2 l1.82 0 z M79.258 12.42 q0.86 0.54 1.31 1.32 t0.45 1.74 q0 2.26 -1.72 3.46 q-1.16 0.84 -3.14 1.06 l-0.08 0 q-0.28 0 -0.46 -0.18 q-0.24 -0.22 -0.24 -0.52 l0 -1.44 q0 -0.26 0.18 -0.46 t0.44 -0.24 q0.94 -0.1 1.46 -0.44 q0.4 -0.24 0.54 -0.62 q0.08 -0.22 0.08 -0.56 q0 -0.22 -0.08 -0.38 t-0.28 -0.3 q-0.58 -0.4 -1.5 -0.68 l-0.32 -0.1 q-1 -0.28 -1.84 -0.46 q-0.18 -0.04 -0.58 -0.14 l-0.22 -0.06 q-0.72 -0.18 -1.52 -0.5 q-1.18 -0.5 -1.94 -1.26 q-0.88 -0.88 -0.88 -2.32 q0 -1.98 1.52 -3.22 q1.04 -0.88 2.92 -1.12 q0.32 -0.04 0.55 0.18 t0.23 0.52 l0 1.44 q0 0.26 -0.16 0.46 t-0.41 0.23 t-0.51 0.11 q-0.58 0.22 -0.82 0.43 t-0.34 0.43 q-0.1 0.34 -0.1 0.64 q0 0.16 0.18 0.34 q0.28 0.28 0.82 0.5 q0.24 0.1 0.84 0.3 l2.5 0.62 l0.12 0.04 q0.94 0.26 1.36 0.4 q0.94 0.32 1.64 0.78 z M75.91799999999999 7.9 q-0.24 -0.06 -0.39 -0.25 t-0.15 -0.45 l0 -1.46 q0 -0.32 0.26 -0.54 q0.1 -0.1 0.26 -0.13 t0.3 -0.01 q1.76 0.28 2.86 1.2 q1.5 1.24 1.6 3.16 q0.02 0.28 -0.19 0.51 t-0.51 0.23 l-1.56 0 q-0.26 0 -0.46 -0.18 t-0.22 -0.44 q-0.08 -0.52 -0.34 -0.86 q-0.42 -0.5 -1.3 -0.76 q-0.06 0 -0.08 -0.02 l-0.08 0 z M73.57799999999999 17.08 q0.24 0.04 0.4 0.24 t0.16 0.44 l0 1.48 q0 0.32 -0.24 0.54 q-0.2 0.16 -0.46 0.16 l-0.1 0 q-1.86 -0.28 -3.06 -1.22 q-1.56 -1.24 -1.76 -3.46 q-0.04 -0.32 0.18 -0.55 t0.52 -0.23 l1.58 0 q0.28 0 0.48 0.19 t0.22 0.47 q0.06 1 0.98 1.54 q0.42 0.24 1.1 0.4 z M94.172 5 q0.28 0 0.49 0.21 t0.21 0.49 l0 13.28 q0 0.28 -0.21 0.49 t-0.49 0.21 l-1.76 0 q-0.34 0 -0.56 -0.28 l-6.94 -9.5 l0 9.08 q0 0.28 -0.21 0.49 t-0.49 0.21 l-1.5 0 q-0.28 0 -0.49 -0.21 t-0.21 -0.49 l0 -13.28 q0 -0.28 0.21 -0.49 t0.49 -0.21 l1.74 0 q0.16 0 0.32 0.07 t0.24 0.21 l6.96 9.46 l0 -9.04 q0 -0.28 0.2 -0.49 t0.48 -0.21 l1.52 0 z M104.146 5.42 l5.6 13.22 q0.1 0.16 0.1 0.34 q0 0.28 -0.2 0.49 t-0.5 0.21 l-1.66 0 q-0.22 0 -0.39 -0.11 t-0.25 -0.31 l-1.46 -3.44 l-5.66 0 l-1.44 3.44 q-0.08 0.2 -0.25 0.31 t-0.39 0.11 l-1.66 0 q-0.18 0 -0.34 -0.09 t-0.25 -0.23 t-0.11 -0.31 t0.06 -0.33 l5.64 -13.3 q0.08 -0.2 0.25 -0.31 t0.39 -0.11 l1.88 0 q0.22 0 0.39 0.11 t0.25 0.31 z M102.566 9.06 l-1.66 3.98 l3.32 0 z M116.92 5 q2.36 0 3.81 1.35 t1.45 3.62 t-1.43 3.62 t-3.83 1.35 l-3.78 0 l0 4.04 q0 0.28 -0.21 0.49 t-0.49 0.21 l-1.5 0 q-0.28 0 -0.49 -0.21 t-0.21 -0.49 l0 -13.28 q0 -0.28 0.21 -0.49 t0.49 -0.21 l5.98 0 z M113.14 7.82 l0 4.32 l3.68 0 q1.3 0 1.88 -0.56 t0.58 -1.61 t-0.58 -1.57 q-0.62 -0.58 -1.88 -0.58 l-3.68 0 z M124.794 16.28 q0.28 0 0.49 0.2 t0.21 0.5 l0 2.08 q0 0.28 -0.21 0.49 t-0.49 0.21 l-1.82 0 q-0.3 0 -0.5 -0.21 t-0.2 -0.49 l0 -2.08 q0 -0.3 0.2 -0.5 t0.5 -0.2 l1.82 0 z M139.442 12.42 q0.86 0.54 1.31 1.32 t0.45 1.74 q0 2.26 -1.72 3.46 q-1.16 0.84 -3.14 1.06 l-0.08 0 q-0.28 0 -0.46 -0.18 q-0.24 -0.22 -0.24 -0.52 l0 -1.44 q0 -0.26 0.18 -0.46 t0.44 -0.24 q0.94 -0.1 1.46 -0.44 q0.4 -0.24 0.54 -0.62 q0.08 -0.22 0.08 -0.56 q0 -0.22 -0.08 -0.38 t-0.28 -0.3 q-0.58 -0.4 -1.5 -0.68 l-0.32 -0.1 q-1 -0.28 -1.84 -0.46 q-0.18 -0.04 -0.58 -0.14 l-0.22 -0.06 q-0.72 -0.18 -1.52 -0.5 q-1.18 -0.5 -1.94 -1.26 q-0.88 -0.88 -0.88 -2.32 q0 -1.98 1.52 -3.22 q1.04 -0.88 2.92 -1.12 q0.32 -0.04 0.55 0.18 t0.23 0.52 l0 1.44 q0 0.26 -0.16 0.46 t-0.41 0.23 t-0.51 0.11 q-0.58 0.22 -0.82 0.43 t-0.34 0.43 q-0.1 0.34 -0.1 0.64 q0 0.16 0.18 0.34 q0.28 0.28 0.82 0.5 q0.24 0.1 0.84 0.3 l2.5 0.62 l0.12 0.04 q0.94 0.26 1.36 0.4 q0.94 0.32 1.64 0.78 z M136.102 7.9 q-0.24 -0.06 -0.39 -0.25 t-0.15 -0.45 l0 -1.46 q0 -0.32 0.26 -0.54 q0.1 -0.1 0.26 -0.13 t0.3 -0.01 q1.76 0.28 2.86 1.2 q1.5 1.24 1.6 3.16 q0.02 0.28 -0.19 0.51 t-0.51 0.23 l-1.56 0 q-0.26 0 -0.46 -0.18 t-0.22 -0.44 q-0.08 -0.52 -0.34 -0.86 q-0.42 -0.5 -1.3 -0.76 q-0.06 0 -0.08 -0.02 l-0.08 0 z M133.762 17.08 q0.24 0.04 0.4 0.24 t0.16 0.44 l0 1.48 q0 0.32 -0.24 0.54 q-0.2 0.16 -0.46 0.16 l-0.1 0 q-1.86 -0.28 -3.06 -1.22 q-1.56 -1.24 -1.76 -3.46 q-0.04 -0.32 0.18 -0.55 t0.52 -0.23 l1.58 0 q0.28 0 0.48 0.19 t0.22 0.47 q0.06 1 0.98 1.54 q0.42 0.24 1.1 0.4 z M153.636 5 q0.28 0 0.48 0.21 t0.2 0.49 l0 13.28 q0 0.28 -0.2 0.49 t-0.48 0.21 l-1.52 0 q-0.28 0 -0.48 -0.21 t-0.2 -0.49 l0 -5.22 l-6.34 0 l0 5.22 q0 0.28 -0.21 0.49 t-0.49 0.21 l-1.5 0 q-0.28 0 -0.49 -0.21 t-0.21 -0.49 l0 -13.28 q0 -0.28 0.21 -0.49 t0.49 -0.21 l1.5 0 q0.28 0 0.49 0.21 t0.21 0.49 l0 5.2 l6.34 0 l0 -5.2 q0 -0.28 0.2 -0.49 t0.48 -0.21 l1.52 0 z M163.58999999999997 5.42 l5.6 13.22 q0.1 0.16 0.1 0.34 q0 0.28 -0.2 0.49 t-0.5 0.21 l-1.66 0 q-0.22 0 -0.39 -0.11 t-0.25 -0.31 l-1.46 -3.44 l-5.66 0 l-1.44 3.44 q-0.08 0.2 -0.25 0.31 t-0.39 0.11 l-1.66 0 q-0.18 0 -0.34 -0.09 t-0.25 -0.23 t-0.11 -0.31 t0.06 -0.33 l5.64 -13.3 q0.08 -0.2 0.25 -0.31 t0.39 -0.11 l1.88 0 q0.22 0 0.39 0.11 t0.25 0.31 z M162.01 9.06 l-1.66 3.98 l3.32 0 z M179.10399999999998 14.02 l2.98 4.58 q0.1 0.16 0.11 0.36 t-0.08 0.36 t-0.26 0.26 t-0.35 0.1 l-1.8 0 q-0.18 0 -0.34 -0.09 t-0.24 -0.23 l-3 -4.78 l-3.54 0 l0 4.4 q0 0.28 -0.21 0.49 t-0.49 0.21 l-1.5 0 q-0.28 0 -0.49 -0.21 t-0.21 -0.49 l0 -13.28 q0 -0.28 0.21 -0.49 t0.49 -0.21 l6.36 0 q2.3 0 3.73 1.31 t1.43 3.55 q0 1.44 -0.63 2.47 t-1.85 1.55 q-0.08 0.04 -0.26 0.12 z M172.584 7.82 l0 3.94 l3.9 0 q1.72 0 2.34 -0.98 q0.2 -0.36 0.2 -0.92 q0 -0.94 -0.62 -1.48 q-0.68 -0.56 -1.84 -0.56 l-3.98 0 z M193.638 5 q0.3 0 0.5 0.21 t0.2 0.49 l0 1.44 q0 0.28 -0.2 0.49 t-0.5 0.21 l-7.56 0 l0 3.06 l6.68 0 q0.3 0 0.5 0.21 t0.2 0.49 l0 1.46 q0 0.28 -0.2 0.49 t-0.5 0.21 l-6.68 0 l0 3.08 l7.56 0 q0.3 0 0.5 0.21 t0.2 0.49 l0 1.44 q0 0.28 -0.2 0.49 t-0.5 0.21 l-9.76 0 q-0.28 0 -0.49 -0.21 t-0.21 -0.49 l0 -13.28 q0 -0.28 0.21 -0.49 t0.49 -0.21 l9.76 0 z"></path></g></svg>